# xmcd
#
# Track frame offsets: 
#        150
#        14307
#        33840
#        50355
#        68595
#        85665
#        99875
#        121445
#        143005
#        161442
#        178355
#        198960
#        214112
#        225345
#        238405
#
# Disc length: 3410 seconds
#
# Revision: 3
# Processed by: cddbd v1.5.2PL0 Copyright (c) Steve Scherf et al.
# Submitted via: ExactAudioCopy v0.99pb4
#
DISCID=bd0d500f
DTITLE=Carey Bell - Carey Bell's Blues Harp
DYEAR=1995
DGENRE=Blues
TTITLE0=I'm Ready
TTITLE1=I Got To Find Somebody
TTITLE2=I Wanna Will My Love To You
TTITLE3=Blue Monday At Kansas City Red's
TTITLE4=I'm Gonna Buy Me A Train Ticket
TTITLE5=Come On Over Here
TTITLE6=I Cry So Much
TTITLE7=Sad Dreams
TTITLE8=Everything's Up Tight
TTITLE9=You Know It Ain't Right
TTITLE10=Last Night
TTITLE11=Rocking With A Chromatic
TTITLE12=I'm Gonna Buy Me Train Ticket (Alt)
TTITLE13=Walking In The Park
TTITLE14=Carey Bell's Blues Harp
EXTD=
EXTT0=
EXTT1=
EXTT2=
EXTT3=
EXTT4=
EXTT5=
EXTT6=
EXTT7=
EXTT8=
EXTT9=
EXTT10=
EXTT11=
EXTT12=
EXTT13=
EXTT14=
PLAYORDER=
